<svg data-v-0dd9719b="" version="1.0" xmlns="http://www.w3.org/2000/svg" xmlns:xlink="http://www.w3.org/1999/xlink" width="100%" height="100%" viewBox="0 0 340.000000 250.000000" preserveAspectRatio="xMidYMid meet" color-interpolation-filters="sRGB" style="margin: auto;"> <rect data-v-0dd9719b="" x="0" y="0" width="100%" height="100%" fill="#fff" fill-opacity="1" class="background"></rect> <rect data-v-0dd9719b="" x="0" y="0" width="100%" height="100%" fill="url(#watermark)" fill-opacity="1" class="watermarklayer"></rect> <g data-v-0dd9719b="" fill="#333" class="icon-text-wrapper icon-svg-group iconsvg" transform="translate(48.779998779296875,87.9766731262207)"><g class="iconsvg-imagesvg" transform="translate(0,0)"><g><rect fill="#333" fill-opacity="0" stroke-width="2" x="0" y="0" width="59.99999999999999" height="74.04664938911513" class="image-rect"></rect> <svg x="0" y="0" width="59.99999999999999" height="74.04664938911513" filtersec="colorsb3324259052" class="image-svg-svg primary" style="overflow: visible;"><svg xmlns="http://www.w3.org/2000/svg" viewBox="-0.00006103515625 0.1100311279296875 590.9200439453125 729.2598266601562"><defs><linearGradient id="a992831a7-f5ba-4e05-89c9-25090d4b513f" x1="857.09" y1="129.68" x2="953.31" y2="1027.79" gradientUnits="userSpaceOnUse"><stop offset="0" stop-color="#78e0f4"></stop><stop offset=".14" stop-color="#70d7ed"></stop><stop offset=".37" stop-color="#59bddc"></stop><stop offset=".66" stop-color="#3394bf"></stop><stop offset=".99" stop-color="#005b97"></stop></linearGradient><linearGradient id="b794f3d10-22a8-438d-9f44-3ab6946cb3cb" x1="746.67" y1="141.51" x2="842.89" y2="1039.62" gradientUnits="userSpaceOnUse"><stop offset="0" stop-color="#78e0f4"></stop><stop offset=".14" stop-color="#70d7ed"></stop><stop offset=".37" stop-color="#59bddc"></stop><stop offset=".66" stop-color="#3394bf"></stop><stop offset=".99" stop-color="#005b97"></stop></linearGradient><linearGradient id="cd34a2db9-3fbf-40d3-8411-192dd720d34f" x1="995.54" y1="114.85" x2="1091.77" y2="1012.96" gradientUnits="userSpaceOnUse"><stop offset="0" stop-color="#78e0f4"></stop><stop offset=".14" stop-color="#70d7ed"></stop><stop offset=".37" stop-color="#59bddc"></stop><stop offset=".66" stop-color="#3394bf"></stop><stop offset=".99" stop-color="#005b97"></stop></linearGradient><linearGradient id="d359054f7-7e98-4004-9806-4492d2f7cc18" x1="957.6" y1="118.91" x2="1053.83" y2="1017.02" gradientUnits="userSpaceOnUse"><stop offset="0" stop-color="#78e0f4"></stop><stop offset=".14" stop-color="#70d7ed"></stop><stop offset=".37" stop-color="#59bddc"></stop><stop offset=".66" stop-color="#3394bf"></stop><stop offset=".99" stop-color="#005b97"></stop></linearGradient><linearGradient id="eb8294016-b5db-4b2e-8cb1-43aeeea29594" x1="1107.33" y1="102.87" x2="1203.56" y2="1000.98" gradientUnits="userSpaceOnUse"><stop offset="0" stop-color="#78e0f4"></stop><stop offset=".14" stop-color="#70d7ed"></stop><stop offset=".37" stop-color="#59bddc"></stop><stop offset=".66" stop-color="#3394bf"></stop><stop offset=".99" stop-color="#005b97"></stop></linearGradient><linearGradient id="f5e5ea745-9210-45eb-a087-3beb0b6fcd31" x1="1218.92" y1="90.91" x2="1315.15" y2="989.03" gradientUnits="userSpaceOnUse"><stop offset="0" stop-color="#78e0f4"></stop><stop offset=".14" stop-color="#70d7ed"></stop><stop offset=".37" stop-color="#59bddc"></stop><stop offset=".66" stop-color="#3394bf"></stop><stop offset=".99" stop-color="#005b97"></stop></linearGradient></defs><path d="M952.22 751.12c.38-.4.77-.8 1.15-1.21s.6-.65.89-1 .73-.83 1.08-1.25.58-.68.86-1 .69-.86 1-1.3l.81-1.06 1-1.38.73-1.07c.34-.49.65-1 1-1.5l.64-1c.37-.61.72-1.23 1.07-1.86l.42-.74q.7-1.31 1.35-2.64c.15-.29.27-.6.41-.89.29-.62.57-1.23.84-1.86.16-.37.3-.75.46-1.12.22-.56.45-1.12.66-1.69l.44-1.23c.19-.55.38-1.09.56-1.65l.39-1.28a81.335 81.335 0 0 0 .81-2.97l.39-1.71c.09-.44.19-.87.27-1.31.12-.59.22-1.18.32-1.77.07-.43.15-.87.21-1.3.09-.62.16-1.25.24-1.87 0-.42.1-.83.14-1.24.07-.7.11-1.4.16-2.11 0-.35 0-.69.07-1.05.05-1.06.08-2.12.08-3.19a66.22 66.22 0 0 0-15.78-42.44c-31.18-37.43-40.7-52.43-40.97-80.1v-6.15c-1-48.68 53.33-69.92 53.33-143.29 0-1.34 0-2.67-.06-4v-.95c0-1.3-.1-2.61-.18-3.91v-.44c-.07-1.18-.17-2.35-.28-3.53 0-.32 0-.64-.08-1-.13-1.26-.27-2.52-.42-3.77 0-.24-.07-.49-.1-.73-.14-1.07-.3-2.14-.46-3.2l-.15-1c-.2-1.21-.41-2.42-.64-3.63l-.18-.94c-.2-1-.41-2-.63-3-.06-.3-.13-.61-.2-.92-.27-1.18-.55-2.35-.85-3.52-.08-.34-.17-.67-.26-1-.26-1-.53-2-.82-3l-.21-.74c-.34-1.18-.7-2.34-1.07-3.5-.1-.31-.21-.61-.31-.92s-.23-.72-.35-1.07a139.53 139.53 0 0 0-54.2-70.9 139.11 139.11 0 0 0-61.51 115.56c0 73.37 54.36 94.61 53.33 143.29v6.15c-.28 27.64-9.79 42.63-40.94 80.06a66.22 66.22 0 0 0-15.78 42.44 64.83 64.83 0 0 0 76.06 63.94c.58-.1 1.17-.19 1.74-.31s.93-.21 1.4-.31l1.61-.37 1.39-.38c.52-.14 1.05-.29 1.57-.45s.91-.28 1.36-.43l1.54-.52 1.32-.49 1.53-.61 1.28-.53c.5-.23 1-.45 1.51-.69l1.22-.58c.51-.25 1-.51 1.51-.77s.77-.41 1.15-.62 1-.58 1.54-.88l1.05-.62c.57-.34 1.12-.71 1.68-1.07l.84-.55c.81-.55 1.62-1.12 2.41-1.71l.53-.42c.61-.46 1.22-.93 1.81-1.42.3-.24.58-.49.87-.74.47-.4.93-.79 1.39-1.2l.92-.86c.42-.39.84-.78 1.24-1.18z" transform="translate(-736.84 -159.61)" fill-rule="evenodd" fill="url(#a992831a7-f5ba-4e05-89c9-25090d4b513f)"></path><path d="M793.46 521.6a56.62 56.62 0 1 0 56.62 56.62 56.62 56.62 0 0 0-56.62-56.62z" transform="translate(-736.84 -159.61)" fill-rule="evenodd" fill="url(#b794f3d10-22a8-438d-9f44-3ab6946cb3cb)"></path><path d="M978 353.78a.31.31 0 0 0 0 .1c7 14.26 15.51 26.44 23.23 38.19l.72 1.11.69 1.05c.34.52.68 1 1 1.56l.62 1c.44.68.87 1.37 1.3 2.05l.29.45c.52.83 1 1.66 1.54 2.49l.39.65c.4.66.8 1.32 1.19 2l.4.67q1.5 2.55 2.88 5.13l.33.62c.37.69.73 1.39 1.09 2.09l.29.57c.44.88.87 1.76 1.29 2.65l.06.14c.38.82.75 1.65 1.11 2.47l.29.66q.47 1.1.9 2.19l.21.52c.35.9.69 1.81 1 2.72l.13.4c.27.77.53 1.55.77 2.33.08.24.15.48.22.73.24.77.46 1.56.67 2.34 0 .15.09.3.12.45.25.93.47 1.87.68 2.82 0 .2.08.4.13.61.16.75.3 1.51.44 2.28.05.27.09.53.14.8.14.86.27 1.73.38 2.61v.31c.12 1 .21 2 .29 3l.06.79c0 .76.09 1.54.11 2.32V457.53c-.32 31.07-11 47.91-46 90-10.81 13-17.74 29.45-17.74 47.69a72.94 72.94 0 0 0 66.87 72.67c.53.05 1.07.07 1.6.1l1 .07c1.15 0 2.31.08 3.47.08a73 73 0 0 0 73-72.94c0-1.12 0-2.23-.07-3.33 0-.37-.06-.75-.08-1.12 0-.72-.09-1.45-.15-2.16 0-.45-.11-.9-.16-1.34-.07-.64-.13-1.27-.22-1.9s-.15-1-.23-1.43-.18-1.18-.29-1.76-.2-1-.3-1.47-.23-1.12-.36-1.67-.25-1-.37-1.48-.27-1.08-.42-1.61-.29-1-.44-1.48-.32-1-.49-1.56-.33-1-.5-1.46-.36-1-.55-1.52-.37-1-.56-1.44-.4-1-.61-1.49-.41-.93-.62-1.4-.44-1-.68-1.47-.43-.91-.66-1.35-.49-1-.75-1.47-.46-.86-.7-1.29l-.83-1.48-.71-1.2-.94-1.51-.71-1.09c-.35-.53-.71-1.06-1.07-1.58l-.67-1c-.4-.56-.82-1.11-1.23-1.67l-.6-.78c-.14-.18-.27-.37-.42-.55-.44-.56-.89-1.13-1.35-1.68-35-42.08-45.7-58.92-46-90v-6.92c-1.16-54.71 60-78.57 60-161 0-1.68 0-3.36-.08-5 0-.63-.06-1.25-.08-1.87 0-1-.09-2.08-.15-3.12-.05-.8-.13-1.6-.19-2.41s-.12-1.69-.2-2.53-.2-1.8-.3-2.7c-.08-.73-.15-1.47-.24-2.19-.13-1-.28-1.94-.42-2.91-.09-.65-.17-1.3-.28-1.94-.16-1-.35-2.07-.54-3.1-.1-.56-.19-1.13-.29-1.69-.21-1.1-.45-2.19-.68-3.28l-.3-1.46c-.26-1.16-.54-2.3-.83-3.45-.1-.41-.19-.82-.3-1.23-.3-1.2-.64-2.4-1-3.59-.1-.34-.19-.69-.29-1-.36-1.25-.74-2.48-1.13-3.72-.09-.28-.17-.56-.26-.84-.42-1.29-.86-2.58-1.31-3.86-.08-.21-.15-.43-.22-.64-.48-1.34-1-2.66-1.49-4-.06-.15-.11-.3-.17-.46-.54-1.37-1.1-2.74-1.68-4.1 0-.09-.07-.18-.11-.26q-.9-2.12-1.87-4.2v-.1a157.11 157.11 0 0 0-54.73-64.17 156.32 156.32 0 0 0-69.14 129.87A141.1 141.1 0 0 0 978 353.78z" transform="translate(-736.84 -159.61)" fill-rule="evenodd" fill="url(#cd34a2db9-3fbf-40d3-8411-192dd720d34f)"></path><path d="M1032.29 743.08c-1.15 0-2.29 0-3.43.09h-.49c-1.08.06-2.14.14-3.2.24l-.65.07c-1 .11-2.07.24-3.1.39l-.62.1c-1 .17-2.08.35-3.11.56l-.38.08c-1 .2-1.92.42-2.87.66l-.55.14c-1 .25-1.94.53-2.9.82l-.7.22c-.94.29-1.88.61-2.8.95l-.65.23c-1 .36-1.89.73-2.83 1.12l-.38.17q-1.41.6-2.79 1.26l-.24.11-.11.05a72.94 72.94 0 0 0-15.67 121l.39.32 1.53 1.26 1 .83c.52.39 1 .79 1.57 1.17.36.27.74.53 1.11.79.53.38 1.06.75 1.6 1.1l1.17.75c.54.35 1.08.69 1.64 1l1.21.7c.56.32 1.11.65 1.68 1s.85.44 1.27.65c1 .51 2 1 3 1.47.54.24 1.07.49 1.61.72s1 .41 1.5.61l1.66.65c.5.19 1 .36 1.51.54l1.73.58 1.52.46c.59.18 1.19.35 1.79.51l1.52.39 1.86.43 1.51.31c.65.13 1.3.24 2 .35l1.48.23c.69.11 1.39.19 2.08.27l1.4.16c.78.08 1.57.13 2.35.18l1.19.08q1.77.09 3.57.09a73 73 0 1 0 0-145.92z" transform="translate(-736.84 -159.61)" fill-rule="evenodd" fill="url(#d359054f7-7e98-4004-9806-4492d2f7cc18)"></path><path d="M1197.29 650.34c-22.69-28.33-30-42.83-30.24-67v-6.15c-1-44.88 45.18-66.44 52.39-127a137.89 137.89 0 0 0 .94-16.28c0-1.32 0-2.64-.06-3.95v-1.07c0-1.25-.1-2.5-.18-3.74 0-.32 0-.63-.07-.94-.06-.95-.14-1.89-.22-2.83 0-.51-.09-1-.14-1.52-.11-1.08-.23-2.15-.36-3.22-.07-.54-.15-1.08-.22-1.61-.1-.75-.21-1.5-.32-2.25l-.24-1.55v-.33a139.21 139.21 0 0 0-59.63-92.55 139.1 139.1 0 0 0-61.52 115.56c0 32.48 10.66 54.73 22.44 73.68.14.23.29.46.44.69s.42.68.64 1l.8 1.27.42.66 1 1.56a1.74 1.74 0 0 1 .11.18c4.48 6.91 9 13.44 13 20 1.67 2.71 3.26 5.41 4.73 8.14.08.13.15.27.23.41l.77 1.5.33.64.67 1.36c.12.25.24.5.37.75l.58 1.24c.12.27.25.54.37.82s.35.79.53 1.18l.37.87.48 1.16c.12.3.24.59.35.89s.3.8.45 1.19.22.58.32.88.31.89.47 1.34c.08.25.17.49.25.74.21.67.42 1.35.62 2 .09.31.17.62.25.92l.33 1.21.24 1 .27 1.14.21 1c.08.38.16.76.23 1.14l.18 1.07.18 1.16.15 1.08c0 .4.1.8.14 1.2s.08.71.11 1.07.07.85.1 1.28 0 .68.07 1 0 1 .05 1.46v9.43c-.3 27.64-9.81 42.63-41 80.06a66.18 66.18 0 0 0-15.8 42.44 64.93 64.93 0 0 0 129.85 0c0-16.22-6.18-30.87-15.79-42.44-3.84-4.57-7.39-8.89-10.64-12.94z" transform="translate(-736.84 -159.61)" fill-rule="evenodd" fill="url(#eb8294016-b5db-4b2e-8cb1-43aeeea29594)"></path><path d="M1271.14 521.6a56.62 56.62 0 1 0 56.62 56.62 56.64 56.64 0 0 0-56.62-56.62z" transform="translate(-736.84 -159.61)" fill-rule="evenodd" fill="url(#f5e5ea745-9210-45eb-a087-3beb0b6fcd31)"></path></svg></svg> <!----></g></g> <g transform="translate(67,20.63832664489746)"><g data-gra="path-name" fill-rule="" class="tp-name iconsvg-namesvg"><g transform="scale(1)"><g><path d="M0.63-32.03L25.71-32.03 25.71-28.39 15.36-28.39 15.36 0 11.02 0 11.02-28.39 0.63-28.39 0.63-32.03ZM35.41-32.03L35.41 0 31.07 0 31.07-32.03 35.41-32.03ZM59.75-11.58L59.75-11.58Q60.07-11.04 60.3-10.45 60.54-9.86 60.76-9.25L60.76-9.25Q60.98-9.88 61.23-10.45 61.48-11.02 61.79-11.6L61.79-11.6 72.63-31.3Q72.92-31.81 73.23-31.92 73.55-32.03 74.13-32.03L74.13-32.03 77.32-32.03 77.32 0 73.52 0 73.52-23.54Q73.52-24.01 73.55-24.55 73.57-25.08 73.61-25.64L73.61-25.64 62.64-5.61Q62.08-4.61 61.07-4.61L61.07-4.61 60.45-4.61Q59.44-4.61 58.88-5.61L58.88-5.61 47.66-25.71Q47.73-25.13 47.76-24.57 47.79-24.01 47.79-23.54L47.79-23.54 47.79 0 43.99 0 43.99-32.03 47.19-32.03Q47.77-32.03 48.08-31.92 48.4-31.81 48.69-31.3L48.69-31.3 59.75-11.58ZM111.21-29.08L110.16-27.03Q109.96-26.69 109.74-26.52 109.52-26.36 109.16-26.36L109.16-26.36Q108.78-26.36 108.27-26.74 107.77-27.12 107-27.57 106.23-28.03 105.15-28.41 104.06-28.79 102.52-28.79L102.52-28.79Q101.07-28.79 99.95-28.4 98.83-28.01 98.08-27.34 97.33-26.67 96.95-25.76 96.57-24.86 96.57-23.81L96.57-23.81Q96.57-22.47 97.23-21.58 97.89-20.7 98.98-20.07 100.06-19.45 101.43-18.99 102.81-18.53 104.25-18.04 105.69-17.55 107.07-16.93 108.44-16.32 109.53-15.38 110.61-14.44 111.27-13.08 111.93-11.71 111.93-9.72L111.93-9.72Q111.93-7.62 111.21-5.78 110.5-3.93 109.12-2.57 107.75-1.21 105.75-0.42 103.75 0.36 101.2 0.36L101.2 0.36Q98.09 0.36 95.53-0.77 92.97-1.9 91.16-3.82L91.16-3.82 92.41-5.88Q92.59-6.13 92.85-6.29 93.11-6.46 93.42-6.46L93.42-6.46Q93.89-6.46 94.49-5.96 95.1-5.45 96-4.85 96.91-4.25 98.19-3.74 99.48-3.24 101.33-3.24L101.33-3.24Q102.88-3.24 104.08-3.67 105.29-4.09 106.13-4.86 106.97-5.63 107.41-6.71 107.86-7.78 107.86-9.1L107.86-9.1Q107.86-10.55 107.2-11.48 106.54-12.41 105.47-13.03 104.4-13.66 103.02-14.09 101.65-14.53 100.2-14.99 98.76-15.45 97.39-16.05 96.01-16.65 94.94-17.62 93.87-18.58 93.21-20.02 92.55-21.46 92.55-23.58L92.55-23.58Q92.55-25.28 93.21-26.87 93.87-28.46 95.12-29.69 96.37-30.92 98.22-31.65 100.06-32.39 102.45-32.39L102.45-32.39Q105.13-32.39 107.35-31.54 109.56-30.69 111.21-29.08L111.21-29.08ZM129.9-3.44L129.9-3.44Q131.89-3.44 133.46-4.11 135.02-4.78 136.11-5.99 137.19-7.2 137.76-8.87 138.33-10.55 138.33-12.56L138.33-12.56 138.33-32.03 142.65-32.03 142.65-12.56Q142.65-9.79 141.76-7.42 140.88-5.05 139.24-3.32 137.59-1.59 135.22-0.6 132.85 0.38 129.9 0.38L129.9 0.38Q126.95 0.38 124.58-0.6 122.21-1.59 120.56-3.32 118.9-5.05 118.02-7.42 117.14-9.79 117.14-12.56L117.14-12.56 117.14-32.03 121.45-32.03 121.45-12.59Q121.45-10.57 122.02-8.9 122.59-7.22 123.68-6.01 124.76-4.81 126.34-4.12 127.91-3.44 129.9-3.44ZM152.32-32.03L152.32-32.03Q152.91-32.03 153.19-31.89 153.46-31.74 153.82-31.3L153.82-31.3 172.38-7.15Q172.31-7.73 172.29-8.28 172.27-8.83 172.27-9.34L172.27-9.34 172.27-32.03 176.07-32.03 176.07 0 173.87 0Q173.36 0 173.01-0.18 172.67-0.36 172.33-0.78L172.33-0.78 153.8-24.9Q153.85-24.34 153.87-23.81 153.89-23.27 153.89-22.82L153.89-22.82 153.89 0 150.09 0 150.09-32.03 152.32-32.03Z" transform="translate(-0.6299999952316284, 32.38999938964844)"></path></g> <!----> <!----> <!----> <!----> <!----> <!----> <!----></g></g> <!----></g></g><defs v-gra="od"></defs></svg>